<svg width="256" height="256" viewBox="0 0 256 256" fill="none" xmlns="http://www.w3.org/2000/svg">
  <defs>
    <radialGradient id="bg" cx="0" cy="0" r="1" gradientUnits="userSpaceOnUse" gradientTransform="translate(128 128) rotate(90) scale(128)">
      <stop offset="0" stop-color="#18233F"/>
      <stop offset="0.65" stop-color="#0C1430"/>
      <stop offset="1" stop-color="#070B18"/>
    </radialGradient>
    <radialGradient id="coreGlow" cx="0" cy="0" r="1" gradientUnits="userSpaceOnUse" gradientTransform="translate(128 128) rotate(90) scale(52)">
      <stop offset="0" stop-color="#FFF7C2"/>
      <stop offset="0.45" stop-color="#FFD86B"/>
      <stop offset="1" stop-color="#FFB020" stop-opacity="0"/>
    </radialGradient>
    <linearGradient id="orbit" x1="52" y1="52" x2="204" y2="204" gradientUnits="userSpaceOnUse">
      <stop offset="0" stop-color="#7DD3FC"/>
      <stop offset="0.5" stop-color="#A78BFA"/>
      <stop offset="1" stop-color="#38BDF8"/>
    </linearGradient>
    <filter id="softGlow" x="0" y="0" width="256" height="256" filterUnits="userSpaceOnUse" color-interpolation-filters="sRGB">
      <feGaussianBlur stdDeviation="6"/>
    </filter>
  </defs>

  <rect x="12" y="12" width="232" height="232" rx="56" fill="url(#bg)"/>

  <circle cx="128" cy="128" r="62" stroke="url(#orbit)" stroke-width="10" opacity="0.95"/>
  <ellipse cx="128" cy="128" rx="84" ry="34" transform="rotate(-28 128 128)" stroke="url(#orbit)" stroke-width="8" opacity="0.9"/>
  <ellipse cx="128" cy="128" rx="84" ry="34" transform="rotate(28 128 128)" stroke="url(#orbit)" stroke-width="8" opacity="0.55"/>

  <circle cx="128" cy="128" r="34" fill="url(#coreGlow)" filter="url(#softGlow)"/>
  <circle cx="128" cy="128" r="13" fill="#FFE08A"/>
  <path d="M128 94L134.4 121.6L162 128L134.4 134.4L128 162L121.6 134.4L94 128L121.6 121.6L128 94Z" fill="#FFF4BF"/>

  <circle cx="185" cy="93" r="6" fill="#7DD3FC"/>
  <circle cx="88" cy="184" r="5" fill="#A78BFA"/>
  <circle cx="63" cy="104" r="3.5" fill="#E0F2FE" opacity="0.9"/>
</svg>
