<svg width="1600" height="620" viewBox="0 0 1600 620" fill="none" xmlns="http://www.w3.org/2000/svg">
  <defs>
    <linearGradient id="bg" x1="0" y1="0" x2="1600" y2="620" gradientUnits="userSpaceOnUse">
      <stop stop-color="#07111F"/>
      <stop offset="0.48" stop-color="#102A43"/>
      <stop offset="1" stop-color="#1E3A8A"/>
    </linearGradient>
    <radialGradient id="glow1" cx="0" cy="0" r="1" gradientUnits="userSpaceOnUse" gradientTransform="translate(1180 160) rotate(124) scale(520 360)">
      <stop stop-color="#60A5FA" stop-opacity="0.55"/>
      <stop offset="1" stop-color="#60A5FA" stop-opacity="0"/>
    </radialGradient>
    <radialGradient id="glow2" cx="0" cy="0" r="1" gradientUnits="userSpaceOnUse" gradientTransform="translate(380 460) rotate(20) scale(460 260)">
      <stop stop-color="#22D3EE" stop-opacity="0.32"/>
      <stop offset="1" stop-color="#22D3EE" stop-opacity="0"/>
    </radialGradient>
    <filter id="blur" x="-50%" y="-50%" width="200%" height="200%">
      <feGaussianBlur stdDeviation="18"/>
    </filter>
    <linearGradient id="card" x1="0" y1="0" x2="1" y2="1">
      <stop stop-color="#FFFFFF" stop-opacity="0.16"/>
      <stop offset="1" stop-color="#FFFFFF" stop-opacity="0.05"/>
    </linearGradient>
  </defs>

  <rect width="1600" height="620" rx="44" fill="url(#bg)"/>
  <rect width="1600" height="620" rx="44" fill="url(#glow1)"/>
  <rect width="1600" height="620" rx="44" fill="url(#glow2)"/>

  <g opacity="0.26">
    <path d="M1080 95H1470" stroke="#BFDBFE" stroke-width="1"/>
    <path d="M1080 165H1470" stroke="#BFDBFE" stroke-width="1"/>
    <path d="M1080 235H1470" stroke="#BFDBFE" stroke-width="1"/>
    <path d="M1080 305H1470" stroke="#BFDBFE" stroke-width="1"/>
    <path d="M1080 375H1470" stroke="#BFDBFE" stroke-width="1"/>
    <path d="M1080 445H1470" stroke="#BFDBFE" stroke-width="1"/>
    <path d="M1140 65V510" stroke="#BFDBFE" stroke-width="1"/>
    <path d="M1210 65V510" stroke="#BFDBFE" stroke-width="1"/>
    <path d="M1280 65V510" stroke="#BFDBFE" stroke-width="1"/>
    <path d="M1350 65V510" stroke="#BFDBFE" stroke-width="1"/>
    <path d="M1420 65V510" stroke="#BFDBFE" stroke-width="1"/>
  </g>

  <g transform="translate(1050 110)">
    <rect x="0" y="0" width="430" height="330" rx="28" fill="url(#card)" stroke="#93C5FD" stroke-opacity="0.35"/>
    <circle cx="70" cy="82" r="34" fill="#38BDF8" fill-opacity="0.22" stroke="#7DD3FC"/>
    <circle cx="220" cy="82" r="34" fill="#A78BFA" fill-opacity="0.2" stroke="#C4B5FD"/>
    <circle cx="355" cy="82" r="34" fill="#34D399" fill-opacity="0.18" stroke="#86EFAC"/>
    <path d="M104 82H186" stroke="#BFDBFE" stroke-width="3" stroke-linecap="round"/>
    <path d="M254 82H321" stroke="#BFDBFE" stroke-width="3" stroke-linecap="round"/>
    <rect x="58" y="168" width="310" height="16" rx="8" fill="#DBEAFE" fill-opacity="0.78"/>
    <rect x="58" y="208" width="240" height="16" rx="8" fill="#93C5FD" fill-opacity="0.5"/>
    <rect x="58" y="248" width="280" height="16" rx="8" fill="#67E8F9" fill-opacity="0.42"/>
  </g>

  <g transform="translate(120 128)">
    <rect x="0" y="0" width="122" height="122" rx="30" fill="#E0F2FE" fill-opacity="0.12" stroke="#BAE6FD" stroke-opacity="0.55"/>
    <path d="M62 25L77 55L111 60L86 83L92 116L62 100L32 116L38 83L13 60L47 55L62 25Z" fill="#7DD3FC"/>
    <circle cx="62" cy="62" r="18" fill="#0F172A" fill-opacity="0.72"/>
  </g>

  <text x="120" y="315" fill="#F8FAFC" font-family="Inter, 'Noto Sans SC', 'Microsoft YaHei', sans-serif" font-size="84" font-weight="800" letter-spacing="2">星枢 · XingShu</text>
  <text x="124" y="382" fill="#BAE6FD" font-family="Inter, 'Noto Sans SC', 'Microsoft YaHei', sans-serif" font-size="34" font-weight="700">智能调度你的自动化工作流</text>
  <text x="124" y="438" fill="#DBEAFE" font-family="Inter, 'Noto Sans SC', 'Microsoft YaHei', sans-serif" font-size="26" opacity="0.92">连接任务、脚本、通知与服务，构建统一的自动化执行中枢</text>

  <g transform="translate(124 500)" font-family="Inter, 'Noto Sans SC', 'Microsoft YaHei', sans-serif" font-size="22" fill="#E0F2FE">
    <rect width="148" height="48" rx="24" fill="#FFFFFF" fill-opacity="0.12" stroke="#FFFFFF" stroke-opacity="0.18"/>
    <text x="31" y="31">任务调度</text>
    <rect x="170" width="148" height="48" rx="24" fill="#FFFFFF" fill-opacity="0.12" stroke="#FFFFFF" stroke-opacity="0.18"/>
    <text x="201" y="31">脚本管理</text>
    <rect x="340" width="148" height="48" rx="24" fill="#FFFFFF" fill-opacity="0.12" stroke="#FFFFFF" stroke-opacity="0.18"/>
    <text x="371" y="31">日志追踪</text>
    <rect x="510" width="148" height="48" rx="24" fill="#FFFFFF" fill-opacity="0.12" stroke="#FFFFFF" stroke-opacity="0.18"/>
    <text x="541" y="31">通知推送</text>
  </g>
</svg>
